<?xml version="1.0"?>
<svg xmlns="http://www.w3.org/2000/svg" xmlns:xlink="http://www.w3.org/1999/xlink" version="1.1" id="Capa_1" x="0px" y="0px" viewBox="0 0 512 512" style="enable-background:new 0 0 512 512;" xml:space="preserve" width="512px" height="512px"><g><g>
	<g>
		<path d="M256,0C114.848,0,0,114.848,0,256s114.848,256,256,256s256-114.848,256-256S397.152,0,256,0z M256,480    C132.512,480,32,379.52,32,256S132.512,32,256,32s224,100.48,224,224S379.488,480,256,480z" data-original="#000000" class="active-path" data-old_color="#000000" fill="#0459A8"/>
	</g>
</g><g>
	<g>
		<path d="M336,192h-17.632c-2.4-11.904-7.712-22.656-14.784-32H336c8.832,0,16-7.168,16-16c0-8.832-7.168-16-16-16h-96h-64    c-8.832,0-16,7.168-16,16c0,8.832,7.168,16,16,16h64c20.832,0,38.432,13.408,45.056,32H176c-8.832,0-16,7.168-16,16    c0,8.832,7.168,16,16,16h109.056c-6.624,18.592-24.224,32-45.056,32h-64c-2.08,0-4.16,0.416-6.112,1.216    c-3.904,1.632-7.04,4.736-8.672,8.672c-1.632,3.904-1.632,8.32,0,12.224c0.8,1.984,1.984,3.744,3.488,5.216l127.968,127.968    C295.808,414.432,299.904,416,304,416s8.192-1.568,11.328-4.672c6.24-6.24,6.24-16.384,0-22.624L214.624,288H240    c38.656,0,70.944-27.52,78.368-64H336c8.832,0,16-7.168,16-16C352,199.168,344.832,192,336,192z" data-original="#000000" class="active-path" data-old_color="#000000" fill="#0459A8"/>
	</g>
</g></g> </svg>
